<svg width="17" height="14" viewBox="0 0 17 14" fill="none" xmlns="http://www.w3.org/2000/svg">
<path d="M1 12V2C1 1.44772 1.44772 1 2 1H5.66634C5.96132 1 6.24125 1.13023 6.43125 1.35586L7.41085 2.51914C7.60086 2.74477 7.88079 2.875 8.17576 2.875H15C15.5523 2.875 16 3.32272 16 3.875V12C16 12.5523 15.5523 13 15 13H2C1.44772 13 1 12.5523 1 12Z" fill="white" stroke="white"/>
<path d="M8.75013 7.175V5H9.82908V7.175C9.82908 7.42353 10.0305 7.625 10.2791 7.625H10.7114L9.2896 9.24589L7.86777 7.625H8.30013C8.54866 7.625 8.75013 7.42353 8.75013 7.175Z" fill="#2079FD" stroke="#2079FD" stroke-width="0.5" stroke-linecap="round"/>
<path d="M6.52637 10.75H12.0527" stroke="#2079FD" stroke-width="1.2" stroke-linecap="round"/>
</svg>
