<svg width="28" height="28" viewBox="0 0 28 28" fill="none" xmlns="http://www.w3.org/2000/svg">
<path fill-rule="evenodd" clip-rule="evenodd" d="M8.41667 4.67566C7.05586 4.70138 6.22277 4.79928 5.55358 5.17201C4.90363 5.53403 4.36753 6.07014 4.00551 6.72009C3.5 7.62765 3.5 8.83668 3.5 11.2547C3.5 11.4059 3.5 11.4814 3.53159 11.5382C3.55422 11.5788 3.58773 11.6123 3.62835 11.6349C3.68507 11.6665 3.76064 11.6665 3.91176 11.6665H24.0882C24.2394 11.6665 24.3149 11.6665 24.3717 11.6349C24.4123 11.6123 24.4458 11.5788 24.4684 11.5382C24.5 11.4814 24.5 11.4059 24.5 11.2547C24.5 8.83668 24.5 7.62765 23.9945 6.72009C23.6325 6.07014 23.0964 5.53403 22.4464 5.17201C21.7772 4.79928 20.9441 4.70138 19.5833 4.67566L19.5833 7.58317C19.5833 8.4116 18.9118 9.08317 18.0833 9.08317C17.2549 9.08317 16.5833 8.4116 16.5833 7.58317L16.5833 4.6665H11.4167L11.4167 7.58317C11.4167 8.4116 10.7451 9.08317 9.91667 9.08317C9.08825 9.08317 8.41667 8.4116 8.41667 7.58317L8.41667 4.67566Z" fill="#222222"/>
<path d="M3.5 13.3335C3.5 13.0978 3.5 12.9799 3.57322 12.9067C3.64645 12.8335 3.7643 12.8335 4 12.8335H24C24.2357 12.8335 24.3536 12.8335 24.4268 12.9067C24.5 12.9799 24.5 13.0978 24.5 13.3335V15.3335C24.5 19.1047 24.5 20.9903 23.3284 22.1619C22.1569 23.3335 20.2712 23.3335 16.5 23.3335H11.5C7.72876 23.3335 5.84315 23.3335 4.67157 22.1619C3.5 20.9903 3.5 19.1047 3.5 15.3335V13.3335Z" fill="#222222" fill-opacity="0.9"/>
<path d="M9.9165 2.9165L9.9165 7.58317" stroke="#222222" stroke-linecap="round"/>
<path d="M18.0835 2.9165L18.0835 7.58317" stroke="#222222" stroke-linecap="round"/>
</svg>
