<svg width="28" height="28" viewBox="0 0 28 28" fill="none" xmlns="http://www.w3.org/2000/svg">
<path fill-rule="evenodd" clip-rule="evenodd" d="M16.2176 2.71893C16.3948 2.94662 16.4273 3.27161 16.4923 3.9216C16.6158 5.15597 16.6775 5.77316 17.026 6.03663C17.1621 6.13958 17.3224 6.20597 17.4915 6.22945C17.9242 6.28956 18.4042 5.89678 19.3643 5.11124C19.8699 4.6976 20.1227 4.49078 20.409 4.45512C20.5242 4.44078 20.6411 4.4466 20.7543 4.47234C21.0357 4.53631 21.2666 4.76726 21.7285 5.22915L22.7709 6.27153C23.2328 6.73343 23.4637 6.96438 23.5277 7.24577C23.5534 7.35897 23.5593 7.47579 23.5449 7.59099C23.5093 7.87735 23.3024 8.13013 22.8888 8.6357C22.1032 9.59584 21.7104 10.0759 21.7706 10.5086C21.794 10.6777 21.8604 10.8379 21.9634 10.9741C22.2268 11.3226 22.844 11.3843 24.0785 11.5077C24.7285 11.5727 25.0535 11.6053 25.2812 11.7825C25.3728 11.8538 25.4512 11.9406 25.5131 12.0388C25.6668 12.283 25.6668 12.6096 25.6668 13.2629V14.7371C25.6668 15.3902 25.6668 15.7168 25.5131 15.9609C25.4513 16.0593 25.3727 16.146 25.2811 16.2174C25.0534 16.3946 24.7285 16.4271 24.0786 16.4921C22.8445 16.6155 22.2274 16.6772 21.964 17.0255C21.8609 17.1618 21.7944 17.3222 21.771 17.4914C21.711 17.924 22.1036 18.4039 22.889 19.3638C23.3025 19.8692 23.5093 20.1219 23.5449 20.4082C23.5593 20.5235 23.5535 20.6404 23.5277 20.7537C23.4637 21.035 23.2328 21.2659 22.7711 21.7276L21.7285 22.7702C21.2667 23.2321 21.0357 23.463 20.7543 23.527C20.6411 23.5527 20.5243 23.5585 20.4091 23.5442C20.1227 23.5085 19.87 23.3017 19.3644 22.8881L19.3644 22.8881C18.4043 22.1025 17.9242 21.7098 17.4915 21.7699C17.3224 21.7934 17.1622 21.8597 17.026 21.9627C16.6775 22.2262 16.6158 22.8434 16.4924 24.078C16.4273 24.7282 16.3948 25.0533 16.2175 25.281C16.1462 25.3725 16.0595 25.451 15.9614 25.5128C15.7171 25.6666 15.3904 25.6666 14.7371 25.6666H13.2631C12.6099 25.6666 12.2832 25.6666 12.039 25.5128C11.9408 25.451 11.8541 25.3725 11.7828 25.2809C11.6055 25.0532 11.573 24.7282 11.508 24.0782C11.3845 22.8438 11.3228 22.2266 10.9743 21.9631C10.8382 21.8602 10.6779 21.7938 10.5089 21.7703C10.0762 21.7102 9.59607 22.103 8.63591 22.8886C8.13032 23.3022 7.87753 23.5091 7.59116 23.5447C7.47597 23.5591 7.35917 23.5532 7.24598 23.5275C6.96458 23.4635 6.73362 23.2326 6.2717 22.7707L5.22936 21.7283C4.76745 21.2664 4.53649 21.0355 4.47253 20.7541C4.44679 20.6409 4.44097 20.5241 4.45531 20.4089C4.49096 20.1225 4.69779 19.8697 5.11144 19.3641L5.11145 19.3641C5.89701 18.404 6.28979 17.9239 6.22968 17.4912C6.2062 17.3221 6.13982 17.1619 6.03686 17.0257C5.77339 16.6772 5.15621 16.6155 3.92184 16.4921H3.92183C3.27185 16.4271 2.94686 16.3946 2.71917 16.2173C2.62757 16.146 2.54908 16.0593 2.48723 15.961C2.3335 15.7168 2.3335 15.3902 2.3335 14.737V13.263C2.3335 12.6096 2.3335 12.2829 2.48729 12.0387C2.54911 11.9405 2.62755 11.8539 2.71908 11.7826C2.9468 11.6053 3.27186 11.5727 3.92198 11.5077C5.15662 11.3843 5.77393 11.3225 6.03741 10.9739C6.14027 10.8378 6.2066 10.6777 6.2301 10.5087C6.29029 10.0759 5.89741 9.59575 5.11165 8.63537C4.69785 8.12962 4.49096 7.87675 4.45534 7.5903C4.44103 7.47521 4.44685 7.3585 4.47254 7.24541C4.53648 6.96392 4.76751 6.7329 5.22955 6.27086L5.22955 6.27086L6.27176 5.22865L6.27176 5.22865C6.73368 4.76673 6.96463 4.53577 7.24603 4.47181C7.35922 4.44608 7.47603 4.44025 7.59122 4.45459C7.87758 4.49024 8.13041 4.6971 8.63606 5.11081C9.59609 5.89629 10.0761 6.28903 10.5087 6.22902C10.6779 6.20554 10.8383 6.13912 10.9745 6.03607C11.3229 5.7726 11.3846 5.15555 11.508 3.92144C11.573 3.2716 11.6055 2.94668 11.7827 2.71902C11.854 2.62735 11.9408 2.5488 12.0392 2.48692C12.2833 2.33325 12.6099 2.33325 13.2629 2.33325H14.7372C15.3905 2.33325 15.7171 2.33325 15.9613 2.48699C16.0595 2.54884 16.1462 2.62732 16.2176 2.71893ZM14.0002 18.6666C16.5775 18.6666 18.6668 16.5772 18.6668 13.9999C18.6668 11.4226 16.5775 9.33325 14.0002 9.33325C11.4228 9.33325 9.33349 11.4226 9.33349 13.9999C9.33349 16.5772 11.4228 18.6666 14.0002 18.6666Z" fill="#222222"/>
</svg>
