<svg width="24" height="24" viewBox="0 0 24 24" fill="none" xmlns="http://www.w3.org/2000/svg">
<path d="M16.9314 2.08922L20.621 2.66901C22.2337 2.92244 23.04 3.04915 23.52 3.61044C24 4.17173 24 4.98799 24 6.62052V17.3795C24 19.012 24 19.8283 23.52 20.3896C23.04 20.9508 22.2337 21.0776 20.621 21.331L16.9314 21.9108C13.7108 22.4169 12.1005 22.6699 11.0503 21.7718C10 20.8737 10 19.2436 10 15.9835V8.01649C10 4.75638 10 3.12633 11.0503 2.22821C12.1005 1.33009 13.7108 1.58313 16.9314 2.08922Z" fill="white"/>
<path d="M14 8L18 13M18 13L14 18M18 13H9" stroke="#2079FD" stroke-width="2" stroke-linecap="round"/>
</svg>
