<svg width="29" height="23" viewBox="0 0 29 23" fill="none" xmlns="http://www.w3.org/2000/svg">
<g clip-path="url(#clip0_239_646)">
<path d="M27.2598 10.3501L20.2998 13.8001V18.9751L27.2598 21.8501V10.3501Z" stroke="black" stroke-width="2" stroke-linejoin="round"/>
<path d="M5.79982 10.35C7.72178 10.35 9.27982 8.80533 9.27982 6.89995C9.27982 4.99457 7.72178 3.44995 5.79982 3.44995C3.87787 3.44995 2.31982 4.99457 2.31982 6.89995C2.31982 8.80533 3.87787 10.35 5.79982 10.35Z" stroke="black" stroke-width="2"/>
<path d="M13.9198 10.3499C16.4824 10.3499 18.5598 8.29041 18.5598 5.7499C18.5598 3.20939 16.4824 1.1499 13.9198 1.1499C11.3572 1.1499 9.27979 3.20939 9.27979 5.7499C9.27979 8.29041 11.3572 10.3499 13.9198 10.3499Z" stroke="black" stroke-width="2"/>
<path d="M5.79982 10.35C7.72178 10.35 9.27982 8.80533 9.27982 6.89995C9.27982 4.99457 7.72178 3.44995 5.79982 3.44995C3.87787 3.44995 2.31982 4.99457 2.31982 6.89995C2.31982 8.80533 3.87787 10.35 5.79982 10.35Z" stroke="black" stroke-width="2"/>
<path d="M18.56 10.3501H2.32C1.0387 10.3501 0 11.3798 0 12.6501V20.7001C0 21.9704 1.0387 23.0001 2.32 23.0001H18.56C19.8413 23.0001 20.88 21.9704 20.88 20.7001V12.6501C20.88 11.3798 19.8413 10.3501 18.56 10.3501Z" fill="black"/>
</g>
<defs>
<clipPath id="clip0_239_646">
<rect width="29" height="23" fill="white"/>
</clipPath>
</defs>
</svg>
